<svg xmlns="http://www.w3.org/2000/svg" xmlns:xlink="http://www.w3.org/1999/xlink" width="6912" zoomAndPan="magnify" viewBox="0 0 5184 2592.000001" height="3456" preserveAspectRatio="xMidYMid meet" version="1.0"><path fill="#000000" d="M 279.277344 1558.390625 C 203.421875 1475.671875 165.523438 1374.246094 165.523438 1254.113281 C 165.523438 1134.035156 203.421875 1032.390625 279.277344 949.1875 C 355.238281 865.871094 451.691406 824.1875 568.632812 824.1875 C 676.007812 824.1875 764.566406 857.925781 834.199219 925.398438 L 834.199219 847.761719 L 1114.042969 847.761719 L 1114.042969 1658.738281 L 837.226562 1658.738281 L 837.226562 1567.042969 L 834.199219 1567.042969 C 764.566406 1644.03125 676.007812 1682.523438 568.632812 1682.523438 C 451.691406 1682.523438 355.238281 1641.164062 279.277344 1558.390625 Z M 517.164062 1116.789062 C 480.832031 1152.578125 462.664062 1198.316406 462.664062 1254.113281 C 462.664062 1309.910156 480.019531 1355.484375 514.785156 1390.789062 C 549.65625 1426.148438 595.503906 1443.773438 652.324219 1443.773438 C 707.09375 1443.773438 752.128906 1425.933594 787.488281 1390.140625 C 822.792969 1354.242188 840.472656 1308.933594 840.472656 1254.113281 C 840.472656 1198.316406 822.304688 1152.578125 785.976562 1116.789062 C 749.644531 1080.890625 705.09375 1062.9375 652.324219 1062.9375 C 598.691406 1062.9375 553.601562 1080.890625 517.164062 1116.789062 Z M 517.164062 1116.789062 " fill-opacity="0.702" fill-rule="nonzero"/><path fill="#000000" d="M 1406.191406 847.761719 L 1406.191406 675.617188 C 1407.164062 554.402344 1435.601562 457.410156 1491.398438 384.746094 C 1547.300781 312.082031 1624.828125 275.75 1723.875 275.75 C 1765.9375 275.75 1806.273438 281.808594 1844.765625 293.917969 C 1883.261719 306.027344 1910.941406 318.355469 1927.808594 330.898438 L 1954.625 348.414062 L 1856.660156 545.859375 C 1831.25 531.15625 1803.296875 523.800781 1772.75 523.800781 C 1737.988281 523.800781 1714.847656 535.695312 1703.332031 559.484375 C 1691.761719 583.164062 1686.03125 624.472656 1686.03125 683.402344 L 1686.03125 847.761719 L 1872.449219 847.761719 L 1872.449219 1061.210938 L 1686.03125 1061.210938 L 1686.03125 1658.738281 L 1406.191406 1658.738281 L 1406.191406 1061.210938 L 1289.191406 1061.210938 L 1289.191406 847.761719 Z M 1406.191406 847.761719 " fill-opacity="0.702" fill-rule="nonzero"/><path fill="#000000" d="M 2033.378906 395.992188 C 2066.089844 363.28125 2105.070312 346.902344 2150.375 346.902344 C 2195.792969 346.902344 2234.773438 363.28125 2267.375 395.992188 C 2300.082031 428.59375 2316.464844 467.519531 2316.464844 512.773438 C 2316.464844 558.078125 2300.082031 597.0625 2267.375 629.769531 C 2234.773438 662.371094 2195.792969 678.644531 2150.375 678.644531 C 2105.070312 678.644531 2066.089844 662.371094 2033.378906 629.769531 C 2000.777344 597.0625 1984.503906 558.078125 1984.503906 512.773438 C 1984.503906 467.519531 2000.777344 428.59375 2033.378906 395.992188 Z M 2006.78125 847.761719 L 2006.78125 1658.738281 L 2286.402344 1658.738281 L 2286.402344 847.761719 Z M 2006.78125 847.761719 " fill-opacity="0.702" fill-rule="nonzero"/><path fill="#000000" d="M 3154.210938 847.761719 L 3476.652344 847.761719 L 2839.550781 2069.632812 L 2517.105469 2069.632812 L 2796.949219 1532.222656 L 2412.871094 847.761719 L 2735.3125 847.761719 L 2961.304688 1263.628906 Z M 3154.210938 847.761719 " fill-opacity="0.702" fill-rule="nonzero"/><path fill="#000000" d="M 3650.210938 1558.390625 C 3574.359375 1475.671875 3536.457031 1374.246094 3536.457031 1254.113281 C 3536.457031 1134.035156 3574.359375 1032.390625 3650.210938 949.1875 C 3726.171875 865.871094 3822.625 824.1875 3939.566406 824.1875 C 4046.941406 824.1875 4135.5 857.925781 4205.136719 925.398438 L 4205.136719 847.761719 L 4484.976562 847.761719 L 4484.976562 1658.738281 L 4208.164062 1658.738281 L 4208.164062 1567.042969 L 4205.136719 1567.042969 C 4135.5 1644.03125 4046.941406 1682.523438 3939.566406 1682.523438 C 3822.625 1682.523438 3726.171875 1641.164062 3650.210938 1558.390625 Z M 3888.097656 1116.789062 C 3851.765625 1152.578125 3833.601562 1198.316406 3833.601562 1254.113281 C 3833.601562 1309.910156 3850.953125 1355.484375 3885.71875 1390.789062 C 3920.589844 1426.148438 3966.4375 1443.773438 4023.261719 1443.773438 C 4078.027344 1443.773438 4123.0625 1425.933594 4158.421875 1390.140625 C 4193.726562 1354.242188 4211.40625 1308.933594 4211.40625 1254.113281 C 4211.40625 1198.316406 4193.242188 1152.578125 4156.910156 1116.789062 C 4120.578125 1080.890625 4076.027344 1062.9375 4023.261719 1062.9375 C 3969.628906 1062.9375 3924.539062 1080.890625 3888.097656 1116.789062 Z M 3888.097656 1116.789062 " fill-opacity="0.702" fill-rule="nonzero"/><path fill="#000000" d="M 4909.910156 1320.503906 C 4960.511719 1320.503906 5003.386719 1338.183594 5038.582031 1373.488281 C 5073.886719 1408.847656 5091.566406 1451.722656 5091.566406 1502.164062 C 5091.566406 1551.796875 5073.886719 1594.238281 5038.582031 1629.542969 C 5003.386719 1664.847656 4960.511719 1682.523438 4909.910156 1682.523438 C 4860.277344 1682.523438 4817.835938 1664.847656 4782.53125 1629.542969 C 4747.335938 1594.238281 4729.761719 1551.796875 4729.761719 1502.164062 C 4729.761719 1451.722656 4747.335938 1408.847656 4782.53125 1373.488281 C 4817.835938 1338.183594 4860.277344 1320.503906 4909.910156 1320.503906 Z M 4909.910156 1320.503906 " fill-opacity="0.702" fill-rule="nonzero"/><path fill="#b1d8b7" d="M 209.410156 1488.523438 C 133.554688 1405.804688 95.65625 1304.378906 95.65625 1184.246094 C 95.65625 1064.167969 133.554688 962.523438 209.410156 879.320312 C 285.371094 796.003906 381.824219 754.320312 498.765625 754.320312 C 606.136719 754.320312 694.695312 788.058594 764.332031 855.53125 L 764.332031 777.894531 L 1044.175781 777.894531 L 1044.175781 1588.867188 L 767.359375 1588.867188 L 767.359375 1497.175781 L 764.332031 1497.175781 C 694.695312 1574.164062 606.136719 1612.65625 498.765625 1612.65625 C 381.824219 1612.65625 285.371094 1571.296875 209.410156 1488.523438 Z M 447.296875 1046.921875 C 410.964844 1082.710938 392.796875 1128.449219 392.796875 1184.246094 C 392.796875 1240.042969 410.152344 1285.617188 444.917969 1320.921875 C 479.789062 1356.28125 525.636719 1373.90625 582.457031 1373.90625 C 637.226562 1373.90625 682.261719 1356.066406 717.621094 1320.273438 C 752.925781 1284.375 770.605469 1239.066406 770.605469 1184.246094 C 770.605469 1128.449219 752.4375 1082.710938 716.105469 1046.921875 C 679.773438 1011.023438 635.226562 993.070312 582.457031 993.070312 C 528.824219 993.070312 483.734375 1011.023438 447.296875 1046.921875 Z M 447.296875 1046.921875 " fill-opacity="1" fill-rule="nonzero"/><path fill="#b1d8b7" d="M 1336.324219 777.894531 L 1336.324219 605.75 C 1337.296875 484.535156 1365.734375 387.542969 1421.527344 314.878906 C 1477.433594 242.214844 1554.960938 205.882812 1654.007812 205.882812 C 1696.070312 205.882812 1736.402344 211.941406 1774.898438 224.050781 C 1813.394531 236.160156 1841.074219 248.488281 1857.941406 261.03125 L 1884.757812 278.546875 L 1786.792969 475.992188 C 1761.382812 461.289062 1733.429688 453.933594 1702.882812 453.933594 C 1668.121094 453.933594 1644.980469 465.828125 1633.464844 489.617188 C 1621.894531 513.296875 1616.164062 554.605469 1616.164062 613.535156 L 1616.164062 777.894531 L 1802.578125 777.894531 L 1802.578125 991.34375 L 1616.164062 991.34375 L 1616.164062 1588.867188 L 1336.324219 1588.867188 L 1336.324219 991.34375 L 1219.324219 991.34375 L 1219.324219 777.894531 Z M 1336.324219 777.894531 " fill-opacity="1" fill-rule="nonzero"/><path fill="#b1d8b7" d="M 1963.527344 326.125 C 1996.234375 293.414062 2035.214844 277.035156 2080.523438 277.035156 C 2125.9375 277.035156 2164.917969 293.414062 2197.519531 326.125 C 2230.230469 358.726562 2246.609375 397.652344 2246.609375 442.90625 C 2246.609375 488.210938 2230.230469 527.191406 2197.519531 559.902344 C 2164.917969 592.503906 2125.9375 608.777344 2080.523438 608.777344 C 2035.214844 608.777344 1996.234375 592.503906 1963.527344 559.902344 C 1930.925781 527.191406 1914.652344 488.210938 1914.652344 442.90625 C 1914.652344 397.652344 1930.925781 358.726562 1963.527344 326.125 Z M 1936.925781 777.894531 L 1936.925781 1588.867188 L 2216.550781 1588.867188 L 2216.550781 777.894531 Z M 1936.925781 777.894531 " fill-opacity="1" fill-rule="nonzero"/><path fill="#b1d8b7" d="M 3084.34375 777.894531 L 3406.785156 777.894531 L 2769.683594 1999.765625 L 2447.238281 1999.765625 L 2727.082031 1462.355469 L 2343.003906 777.894531 L 2665.445312 777.894531 L 2891.4375 1193.761719 Z M 3084.34375 777.894531 " fill-opacity="1" fill-rule="nonzero"/><path fill="#b1d8b7" d="M 3580.34375 1488.523438 C 3504.488281 1405.804688 3466.589844 1304.378906 3466.589844 1184.246094 C 3466.589844 1064.167969 3504.488281 962.523438 3580.34375 879.320312 C 3656.304688 796.003906 3752.757812 754.320312 3869.699219 754.320312 C 3977.074219 754.320312 4065.632812 788.058594 4135.265625 855.53125 L 4135.265625 777.894531 L 4415.109375 777.894531 L 4415.109375 1588.867188 L 4138.296875 1588.867188 L 4138.296875 1497.175781 L 4135.265625 1497.175781 C 4065.632812 1574.164062 3977.074219 1612.65625 3869.699219 1612.65625 C 3752.757812 1612.65625 3656.304688 1571.296875 3580.34375 1488.523438 Z M 3818.230469 1046.921875 C 3781.898438 1082.710938 3763.730469 1128.449219 3763.730469 1184.246094 C 3763.730469 1240.042969 3781.085938 1285.617188 3815.851562 1320.921875 C 3850.722656 1356.28125 3896.570312 1373.90625 3953.390625 1373.90625 C 4008.160156 1373.90625 4053.195312 1356.066406 4088.554688 1320.273438 C 4123.859375 1284.375 4141.539062 1239.066406 4141.539062 1184.246094 C 4141.539062 1128.449219 4123.371094 1082.710938 4087.042969 1046.921875 C 4050.710938 1011.023438 4006.160156 993.070312 3953.390625 993.070312 C 3899.761719 993.070312 3854.667969 1011.023438 3818.230469 1046.921875 Z M 3818.230469 1046.921875 " fill-opacity="1" fill-rule="nonzero"/><path fill="#b1d8b7" d="M 4840.054688 1250.636719 C 4890.660156 1250.636719 4933.53125 1268.316406 4968.730469 1303.621094 C 5004.035156 1338.980469 5021.714844 1381.855469 5021.714844 1432.296875 C 5021.714844 1481.929688 5004.035156 1524.371094 4968.730469 1559.675781 C 4933.53125 1594.976562 4890.660156 1612.65625 4840.054688 1612.65625 C 4790.421875 1612.65625 4747.980469 1594.976562 4712.675781 1559.675781 C 4677.480469 1524.371094 4659.910156 1481.929688 4659.910156 1432.296875 C 4659.910156 1381.855469 4677.480469 1338.980469 4712.675781 1303.621094 C 4747.980469 1268.316406 4790.421875 1250.636719 4840.054688 1250.636719 Z M 4840.054688 1250.636719 " fill-opacity="1" fill-rule="nonzero"/></svg>